<!DOCTYPE svg PUBLIC "-//W3C//DTD SVG 1.1//EN" "http://www.w3.org/Graphics/SVG/1.1/DTD/svg11.dtd">
<!-- Uploaded to: SVG Repo, www.svgrepo.com, Transformed by: SVG Repo Mixer Tools -->
<svg width="800px" height="800px" viewBox="0 0 24 24" xmlns="http://www.w3.org/2000/svg" fill="#4ADE80" stroke="#4ADE80">
<g id="SVGRepo_bgCarrier" stroke-width="0"/>
<g id="SVGRepo_tracerCarrier" stroke-linecap="round" stroke-linejoin="round"/>
<g id="SVGRepo_iconCarrier"> <path fill="none" stroke="#4ADE80" stroke-width="2" d="M6.5,10.5 L12,13.5 L17.5,10.5 L17.5,4.5 L12,1.5 L6.5,4.5 L6.5,10.5 Z M6.5,4.5 L12,7.5 L17.5,4.5 M12,7.5 L12,13.5 L12,7.5 Z M1,19.5 L6.5,22.5 L12,19.5 L12,13.5 L6.5,10.5 L1,13.5 L1,19.5 Z M1,13.5 L6.5,16.5 L12,13.5 M6.5,16.5 L6.5,22.5 L6.5,16.5 Z M12,19.5 L17.5,22.5 L23,19.5 L23,13.5 L17.5,10.5 L12,13.5 L12,19.5 Z M12,13.5 L17.5,16.5 L23,13.5 M17.5,16.5 L17.5,22.5 L17.5,16.5 Z"/> </g>
</svg>