<!DOCTYPE svg PUBLIC "-//W3C//DTD SVG 1.1//EN" "http://www.w3.org/Graphics/SVG/1.1/DTD/svg11.dtd">
<!-- Uploaded to: SVG Repo, www.svgrepo.com, Transformed by: SVG Repo Mixer Tools -->
<svg width="800px" height="800px" viewBox="0 0 24 24" xmlns="http://www.w3.org/2000/svg" fill="#16A34A" stroke="#16A34A">
<g id="SVGRepo_bgCarrier" stroke-width="0"/>
<g id="SVGRepo_tracerCarrier" stroke-linecap="round" stroke-linejoin="round"/>
<g id="SVGRepo_iconCarrier"> <g> <path fill="none" d="M0 0h24v24H0z"/> <path fill-rule="nonzero" d="M12 2a9 9 0 0 1 9 9v7.5a3.5 3.5 0 0 1-6.39 1.976 2.999 2.999 0 0 1-5.223 0 3.5 3.5 0 0 1-6.382-1.783L3 18.499V11a9 9 0 0 1 9-9zm0 2a7 7 0 0 0-6.996 6.76L5 11v7.446l.002.138a1.5 1.5 0 0 0 2.645.88l.088-.116a2 2 0 0 1 3.393.142.999.999 0 0 0 1.74.003 2 2 0 0 1 3.296-.278l.097.13a1.5 1.5 0 0 0 2.733-.701L19 18.5V11a7 7 0 0 0-7-7zm0 8c1.105 0 2 1.12 2 2.5s-.895 2.5-2 2.5-2-1.12-2-2.5.895-2.5 2-2.5zM9.5 8a1.5 1.5 0 1 1 0 3 1.5 1.5 0 0 1 0-3zm5 0a1.5 1.5 0 1 1 0 3 1.5 1.5 0 0 1 0-3z"/> </g> </g>
</svg>