<!DOCTYPE svg PUBLIC "-//W3C//DTD SVG 1.1//EN" "http://www.w3.org/Graphics/SVG/1.1/DTD/svg11.dtd">
<!-- Uploaded to: SVG Repo, www.svgrepo.com, Transformed by: SVG Repo Mixer Tools -->
<svg width="800px" height="800px" viewBox="0 0 24 24" xmlns="http://www.w3.org/2000/svg" fill="#16A34A" stroke="#16A34A">
<g id="SVGRepo_bgCarrier" stroke-width="0"/>
<g id="SVGRepo_tracerCarrier" stroke-linecap="round" stroke-linejoin="round"/>
<g id="SVGRepo_iconCarrier"> <g> <path fill="none" d="M0 0h24v24H0z"/> <path d="M12 14v2a6 6 0 0 0-6 6H4a8 8 0 0 1 8-8zm0-1c-3.315 0-6-2.685-6-6s2.685-6 6-6 6 2.685 6 6-2.685 6-6 6zm0-2c2.21 0 4-1.79 4-4s-1.79-4-4-4-4 1.79-4 4 1.79 4 4 4zm6 10.5l-2.939 1.545.561-3.272-2.377-2.318 3.286-.478L18 14l1.47 2.977 3.285.478-2.377 2.318.56 3.272L18 21.5z"/> </g> </g>
</svg>